<svg xmlns="http://www.w3.org/2000/svg" viewBox="0 0 100 100" width="256" height="256"><rect width="100" height="100" fill="#ffe9dc"/><polygon points="14,42 24,10 46,30" fill="#f2701f"/><polygon points="86,42 76,10 54,30" fill="#f2701f"/><polygon points="22,36 26,18 38,30" fill="#3a2418"/><polygon points="78,36 74,18 62,30" fill="#3a2418"/><path d="M14 42 Q50 22 86 42 Q88 68 50 90 Q12 68 14 42Z" fill="#f58a3a"/><path d="M18 56 Q50 48 82 56 Q74 80 50 90 Q26 80 18 56Z" fill="#fff"/><path d="M30 46 Q36 42 42 48 M70 46 Q64 42 58 48" fill="none" stroke="#3a2418" stroke-width="3" stroke-linecap="round"/><circle cx="36" cy="54" r="3.8" fill="#1f2937"/><circle cx="64" cy="54" r="3.8" fill="#1f2937"/><circle cx="50" cy="80" r="4" fill="#1f2937"/><path d="M50 84 Q44 90 38 86 M50 84 Q56 90 62 86" fill="none" stroke="#1f2937" stroke-width="2" stroke-linecap="round"/></svg>
