<svg xmlns="http://www.w3.org/2000/svg" viewBox="0 0 100 100" width="256" height="256"><rect width="100" height="100" fill="#e6e9ee"/><circle cx="50" cy="54" r="34" fill="#1e293b"/><path d="M20 52 Q50 40 80 52 L80 66 Q50 74 20 66Z" fill="#f1c9a0"/><path d="M14 36 Q50 24 86 36 L86 44 Q50 32 14 44Z" fill="#ef4444"/><path d="M86 38 L98 30 L94 44Z M86 42 L98 52 L92 48Z" fill="#dc2626"/><rect x="46" y="28" width="8" height="10" rx="2" fill="#cbd5e1"/><ellipse cx="36" cy="58" rx="6.5" ry="5" fill="#111"/><ellipse cx="64" cy="58" rx="6.5" ry="5" fill="#111"/><circle cx="37.6" cy="56.6" r="1.8" fill="#fff"/><circle cx="65.6" cy="56.6" r="1.8" fill="#fff"/><path d="M28 50 L42 53 M72 50 L58 53" stroke="#1e293b" stroke-width="3" stroke-linecap="round"/></svg>
